<svg width="100" height="100" viewBox="0 0 24 24" fill="none" xmlns="http://www.w3.org/2000/svg">
  <path d="M12 20C13.1046 20 14 19.1046 14 18C14 16.8954 13.1046 16 12 16C10.8954 16 10 16.8954 10 18C10 19.1046 10.8954 20 12 20Z" stroke="white" stroke-width="2"/>
  <path d="M7.75736 15.7574C9.51472 14 11.8528 13 12 13C12.1472 13 14.4853 14 16.2426 15.7574" stroke="white" stroke-width="2" stroke-linecap="round"/>
  <path d="M4.92893 12.9289C7.66274 10.1951 11.2353 9 12 9C12.7647 9 16.3373 10.1951 19.0711 12.9289" stroke="white" stroke-width="2" stroke-linecap="round"/>
  <path d="M2.10051 10.1005C6.00557 6.19544 11.0264 5 12 5C12.9736 5 17.9944 6.19544 21.9005 10.1005" stroke="white" stroke-width="2" stroke-linecap="round"/>
</svg>
